<?xml version="1.0" standalone="no"?>
<!DOCTYPE svg PUBLIC "-//W3C//DTD SVG 20010904//EN"
 "http://www.w3.org/TR/2001/REC-SVG-20010904/DTD/svg10.dtd">
<svg version="1.0" xmlns="http://www.w3.org/2000/svg"
 width="500.000000pt" height="500.000000pt" viewBox="0 0 500.000000 500.000000"
 preserveAspectRatio="xMidYMid meet">
<metadata>
Created by potrace 1.11, written by Peter Selinger 2001-2013
</metadata>
<g transform="translate(0.000000,500.000000) scale(0.100000,-0.100000)"
fill="#000000" stroke="none">
<path d="M2472 4564 c-12 -25 -82 -150 -154 -277 -257 -453 -398 -752 -455
-967 -14 -52 -26 -96 -27 -97 -2 -2 -31 8 -65 22 -124 51 -224 69 -381 68
-116 0 -161 -4 -225 -21 -99 -27 -265 -109 -325 -162 l-45 -39 82 -1 c73 0 87
3 130 30 64 39 180 76 282 90 199 27 448 -33 592 -144 l46 -35 2 67 c4 189
104 437 379 939 60 109 126 231 147 271 22 39 42 72 45 72 7 0 319 -576 393
-725 111 -223 174 -420 179 -552 l2 -68 78 52 c144 96 383 149 562 123 98 -14
212 -51 282 -91 45 -25 61 -29 130 -29 l79 1 -40 34 c-103 90 -270 161 -430
185 -148 23 -358 -4 -506 -65 -34 -14 -63 -24 -65 -22 -1 1 -12 40 -24 87 -51
203 -180 480 -432 929 -194 346 -208 371 -211 371 -2 0 -13 -21 -25 -46z"/>
<path d="M2490 4105 c0 -28 -14 -237 -30 -465 -16 -228 -30 -432 -30 -452 l0
-38 70 0 c66 0 70 1 70 23 1 71 -65 964 -72 972 -4 5 -8 -13 -8 -40z"/>
<path d="M2480 3081 c-49 -10 -76 -27 -96 -59 -15 -27 -20 -28 -65 -24 -83 8
-127 -43 -94 -108 19 -37 31 -38 30 -3 0 32 22 41 111 42 33 1 68 7 79 15 17
12 17 13 -8 20 -49 12 -31 33 34 40 48 6 68 3 97 -11 l37 -18 22 -150 c12 -82
22 -161 23 -175 l0 -25 -134 3 -134 3 30 96 c16 52 27 105 24 117 -7 30 -46
46 -108 46 -50 0 -51 -1 -34 -19 10 -11 31 -25 47 -31 16 -7 29 -14 29 -16 0
-6 -41 -108 -57 -141 -17 -37 -59 -56 -89 -40 -10 5 -86 76 -169 156 -239 234
-226 231 -870 231 l-464 0 20 -34 c26 -45 46 -50 264 -76 98 -11 181 -23 184
-25 2 -3 -80 -5 -183 -5 l-187 0 18 -24 c27 -36 48 -43 210 -66 81 -11 149
-23 152 -25 2 -3 -22 -6 -55 -6 -32 -1 -66 -3 -74 -4 -8 -1 -42 -3 -74 -4
l-60 -1 34 -35 c37 -38 67 -47 240 -66 58 -7 109 -16 115 -20 5 -5 -46 -9
-118 -9 -70 0 -127 -3 -127 -6 0 -10 44 -45 75 -58 17 -8 94 -22 173 -32 78
-9 142 -21 142 -26 0 -4 -55 -8 -122 -8 l-123 0 25 -20 c44 -36 85 -48 221
-66 74 -9 138 -21 144 -26 5 -4 -42 -8 -104 -8 -127 0 -131 -5 -41 -54 37 -20
79 -31 167 -43 158 -21 180 -31 73 -34 -47 -1 -91 -2 -97 -2 -25 1 -13 -12 35
-39 62 -34 135 -55 224 -64 102 -9 107 -18 13 -24 l-80 -5 127 -65 c70 -36
128 -70 128 -76 0 -6 -59 -69 -132 -141 l-132 -131 39 -44 c55 -61 169 -158
177 -150 10 11 131 296 130 307 -1 6 -16 51 -34 100 -32 89 -32 91 -36 316 -4
214 -3 227 14 232 11 3 110 27 221 53 l201 48 179 -43 c98 -23 195 -47 216
-52 l37 -10 0 -204 c0 -216 -7 -270 -46 -377 l-25 -67 67 -155 67 -155 30 21
c45 32 157 139 169 161 9 17 -6 36 -122 152 -73 73 -130 138 -126 143 4 6 57
37 119 68 62 31 116 60 121 65 6 5 -20 9 -63 9 -90 0 -85 15 9 24 87 9 160 30
223 64 61 33 48 42 -62 42 -46 0 -82 2 -79 5 3 3 65 14 138 25 130 19 187 38
240 80 l25 20 -120 0 c-65 0 -115 4 -110 8 6 5 71 17 145 26 132 17 203 39
230 72 11 12 -4 14 -109 14 -74 0 -121 4 -121 10 0 6 12 10 28 10 15 0 84 9
155 19 101 15 136 24 167 45 22 14 40 31 40 36 0 6 -50 10 -127 10 -70 0 -123
4 -118 8 6 5 75 16 154 26 150 18 181 28 219 69 l23 25 -136 7 c-75 4 -135 8
-133 10 2 2 72 13 157 25 85 11 160 24 165 27 20 11 56 46 56 55 0 4 -84 9
-187 9 -104 1 -181 3 -173 5 8 2 103 15 210 28 l195 25 28 33 c15 18 27 36 27
41 0 4 -224 7 -497 5 -476 -4 -500 -5 -553 -25 -109 -41 -145 -67 -295 -214
-94 -92 -159 -149 -172 -149 -40 0 -54 33 -81 198 -27 166 -27 160 6 223 1 4
-32 10 -75 13 -43 4 -85 9 -93 10 -8 2 -31 0 -50 -3z"/>
<path d="M667 2898 c-14 -35 -31 -90 -38 -123 -17 -79 -15 -261 4 -351 54
-250 229 -475 486 -621 42 -24 78 -43 81 -43 3 0 6 53 5 118 0 99 3 124 22
164 32 70 96 133 174 172 l69 35 -51 37 -52 38 -44 -24 c-89 -47 -186 -182
-216 -301 l-13 -50 -60 44 c-131 97 -231 233 -281 382 -25 73 -27 93 -27 235
-1 135 2 162 21 207 l21 53 -34 45 c-19 25 -36 45 -38 45 -2 0 -15 -28 -29
-62z"/>
<path d="M4272 2905 l-32 -45 21 -77 c30 -109 24 -292 -14 -408 -48 -146 -152
-287 -282 -383 -52 -38 -60 -42 -63 -26 -25 132 -130 286 -230 338 -27 14 -31
13 -83 -22 l-55 -38 53 -23 c75 -33 146 -100 180 -169 26 -53 28 -66 28 -174
-1 -65 1 -118 4 -118 8 0 136 73 181 104 75 51 208 185 259 261 58 87 107 202
128 299 22 101 21 284 -1 370 -16 61 -52 156 -60 156 -1 0 -16 -20 -34 -45z"/>
<path d="M1008 2564 c-2 -5 -13 -37 -23 -72 l-19 -63 -72 3 c-40 2 -70 0 -68
-3 2 -3 28 -23 58 -44 l54 -37 -23 -69 c-14 -42 -19 -67 -12 -63 7 4 34 23 60
42 l48 34 59 -41 c33 -23 60 -40 60 -38 0 2 -9 30 -20 63 -11 32 -18 64 -16
71 3 6 28 28 57 47 l52 35 -73 3 -74 3 -22 69 c-12 38 -23 65 -26 60z"/>
<path d="M3965 2502 l-20 -67 -73 0 -73 0 24 -20 c14 -11 39 -31 57 -45 l33
-26 -21 -64 c-12 -35 -20 -65 -19 -67 2 -1 28 15 57 37 30 22 56 40 58 40 2 0
25 -15 51 -33 25 -19 51 -37 58 -41 7 -4 2 21 -12 63 l-23 69 54 37 c30 21 56
41 58 44 2 3 -28 6 -67 6 l-72 0 -21 63 c-12 34 -23 64 -25 66 -2 3 -13 -26
-24 -62z"/>
<path d="M2303 2457 l-173 -42 0 -117 0 -118 375 0 375 0 0 118 0 119 -179 41
c-98 23 -189 42 -202 41 -13 0 -102 -19 -196 -42z"/>
<path d="M2134 2070 c4 -30 13 -77 20 -105 l14 -50 1 105 c1 101 0 106 -20
106 -20 0 -21 -4 -15 -56z"/>
<path d="M2230 1955 l0 -170 30 -45 30 -45 0 215 0 215 -30 0 -30 0 0 -170z"/>
<path d="M2351 1875 l0 -250 35 -28 34 -29 0 275 0 275 -35 4 -35 4 1 -251z"/>
<path d="M2480 2125 c0 0 0 -135 -1 -299 0 -266 1 -300 16 -308 10 -6 21 -5
31 3 12 10 14 58 12 307 l-3 295 -27 1 c-16 1 -28 2 -28 1z"/>
<path d="M2600 1853 c0 -150 4 -273 8 -273 5 0 18 11 30 23 22 23 22 28 20
272 l-3 248 -27 1 -28 2 0 -273z"/>
<path d="M2720 1913 c0 -117 2 -213 4 -213 2 0 15 18 30 40 26 39 26 42 26
212 l0 173 -30 0 -30 0 0 -212z"/>
<path d="M2858 2123 c-16 -4 -18 -17 -17 -106 0 -102 0 -102 15 -62 14 37 32
177 23 174 -2 -1 -12 -3 -21 -6z"/>
<path d="M1381 1711 c-41 -96 -53 -176 -49 -316 4 -110 9 -141 31 -197 116
-299 422 -465 690 -374 l68 23 40 -86 c57 -123 154 -263 253 -366 l86 -90 86
90 c47 49 114 132 149 185 63 95 135 232 135 258 0 8 6 11 13 8 85 -36 153
-48 240 -44 205 11 390 137 486 333 46 92 61 165 61 290 0 119 -15 201 -53
286 l-24 54 -16 -72 c-9 -40 -27 -94 -41 -120 -81 -160 -265 -201 -416 -93
l-29 21 -32 -29 c-32 -29 -33 -30 -16 -55 20 -31 144 -92 203 -101 85 -12 215
30 287 94 21 18 40 30 44 27 3 -3 -2 -48 -10 -98 -28 -163 -99 -274 -232 -361
-156 -102 -338 -101 -466 2 l-37 29 -32 -82 c-65 -165 -162 -330 -259 -437
l-41 -45 -46 50 c-89 98 -191 271 -254 432 l-32 82 -37 -29 c-129 -103 -310
-104 -466 -2 -133 87 -204 198 -232 361 -8 50 -13 95 -10 98 4 3 23 -9 44 -27
85 -75 218 -111 318 -85 67 18 139 55 179 92 l28 25 -34 29 c-40 34 -42 34
-78 9 -151 -107 -335 -66 -416 92 -13 26 -31 78 -40 115 -9 38 -17 69 -18 71
-2 1 -13 -20 -25 -47z"/>
<path d="M2167 1718 c-8 -18 -40 -94 -72 -168 l-57 -134 26 -21 26 -20 -19
-31 c-26 -42 -82 -66 -169 -72 -63 -4 -75 -8 -81 -26 -9 -23 4 -69 23 -86 10
-8 12 -5 9 14 -8 41 21 47 195 44 l157 -3 5 -29 c4 -26 7 -27 18 -13 8 9 12
32 10 54 -3 37 -4 38 -43 41 -53 3 -85 11 -85 20 0 4 10 20 23 35 22 28 22 28
61 12 21 -9 42 -13 46 -8 10 11 100 214 100 226 0 5 -23 35 -52 66 -28 31 -64
73 -79 94 l-28 39 -14 -34z"/>
<path d="M2809 1718 c-13 -18 -50 -61 -82 -95 l-60 -63 49 -112 c26 -62 51
-116 54 -121 4 -4 26 -1 50 8 24 8 44 14 45 13 1 -2 11 -16 23 -32 28 -36 17
-46 -49 -46 -60 0 -76 -17 -63 -67 5 -20 14 -38 21 -40 7 -3 9 3 6 17 -3 13 0
25 7 30 16 10 288 13 324 4 21 -5 26 -12 26 -38 l0 -31 20 30 c23 34 26 68 8
82 -7 6 -45 13 -85 16 -78 6 -103 16 -145 55 -35 32 -36 55 -3 70 23 11 24 13
10 44 -8 18 -41 95 -73 171 l-60 139 -23 -34z"/>
<path d="M2381 1498 c-5 -13 -20 -48 -34 -80 l-25 -56 21 -6 c71 -20 302 -18
335 3 10 6 4 27 -22 85 l-35 77 -53 -36 c-29 -19 -56 -35 -61 -35 -5 0 -27 13
-50 28 -66 45 -66 45 -76 20z"/>
</g>
</svg>
